<svg xmlns="http://www.w3.org/2000/svg" width="1024" height="1024" viewBox="0 0 1024 1024">
<g>
<path d="M 408.16 436.86 L 366.50 479.08 L 341.25 479.04 C326.44,479.02 316.00,478.62 316.00,478.07 C316.00,477.06 365.26,426.64 416.91,374.78 L 449.50 342.05 L 472.03 364.28 C484.42,376.50 506.79,398.54 521.74,413.25 L 548.91 440.00 L 667.22 440.00 L 686.10 458.12 C696.48,468.08 704.73,476.63 704.43,477.12 C704.12,477.62 667.26,477.99 619.69,477.97 L 535.50 477.94 L 495.00 437.94 C472.73,415.94 453.45,397.20 452.16,396.30 C449.82,394.65 449.69,394.77 408.16,436.86 ZM 382.50 693.91 C375.90,695.93 367.15,696.98 362.50,696.31 C349.37,694.42 335.35,687.52 326.47,678.57 C315.65,667.68 310.00,653.51 310.00,637.27 C310.00,613.17 322.27,590.79 340.72,581.22 C350.54,576.12 358.48,574.52 369.89,575.33 C395.82,577.17 412.76,591.41 420.14,617.55 C423.02,627.76 423.26,643.46 420.68,653.00 C415.41,672.52 400.62,688.37 382.50,693.91 ZM 316.70 688.96 C321.32,693.28 324.74,697.03 324.30,697.30 C323.86,697.56 320.52,696.99 316.87,696.04 C301.62,692.04 290.55,684.44 282.94,672.74 C277.08,663.74 272.68,647.92 264.02,604.69 C259.63,582.79 255.74,564.39 255.38,563.81 C254.96,563.12 254.41,563.30 253.85,564.30 C253.04,565.76 229.46,628.01 215.90,664.50 C206.56,689.63 204.84,693.47 203.78,691.57 C203.28,690.68 200.69,683.55 198.03,675.72 C183.57,633.26 155.91,563.23 153.39,562.69 C152.90,562.59 149.76,576.00 146.41,592.50 C138.43,631.85 128.23,681.08 126.63,688.00 C125.61,692.40 124.92,693.56 123.18,693.82 C120.25,694.25 120.31,693.40 124.54,673.86 C126.48,664.86 130.52,646.03 133.50,632.00 C141.80,593.00 145.91,574.27 148.05,565.61 C150.78,554.58 150.57,551.87 146.36,543.87 C142.77,537.03 130.90,523.02 128.66,522.98 C128.02,522.97 126.38,522.08 125.00,521.00 L 122.50 519.04 L 126.09 519.02 C136.21,518.96 151.07,525.23 158.56,532.72 C167.10,541.26 181.65,568.36 192.25,595.50 C197.56,609.08 207.66,635.54 212.01,647.25 C213.18,650.41 214.50,653.00 214.94,653.00 C215.37,653.00 216.52,650.86 217.49,648.25 C223.82,631.14 258.69,539.94 262.50,530.50 C264.50,525.55 266.53,521.10 267.01,520.61 C267.21,520.40 267.36,520.20 267.51,520.20 C268.13,520.19 268.79,523.46 272.80,543.33 L 273.44 546.50 C275.89,558.60 279.93,578.17 282.43,590.00 C284.92,601.83 288.34,618.03 290.02,626.00 C298.24,664.93 302.98,676.12 316.70,688.96 ZM 841.99 694.32 C830.69,697.44 823.53,696.89 813.79,692.15 C801.41,686.13 795.15,670.54 799.97,657.75 C804.45,645.90 816.11,636.89 840.50,626.47 C864.42,616.26 871.86,612.78 873.94,610.84 C877.10,607.90 876.89,594.45 873.57,587.32 C870.19,580.06 867.14,578.65 856.08,579.21 C846.45,579.70 840.14,582.29 830.00,589.91 C821.85,596.02 808.65,609.22 804.93,614.96 C803.13,617.73 801.23,620.00 800.69,620.00 C799.21,620.00 800.63,610.63 802.88,605.53 C811.17,586.79 845.79,571.62 870.47,575.92 C881.62,577.86 888.30,582.53 892.80,591.53 C896.35,598.63 897.00,606.09 897.00,640.00 C897.00,674.94 897.66,681.92 901.60,688.71 L 904.04 692.93 L 901.44 694.63 C897.69,697.09 891.16,696.79 885.92,693.92 C879.96,690.65 876.85,684.42 876.21,674.39 C875.95,670.33 875.46,667.00 875.12,667.01 C874.78,667.01 873.38,668.68 872.00,670.71 C868.34,676.11 856.62,687.45 851.72,690.32 C849.38,691.69 845.01,693.49 841.99,694.32 ZM 672.50 694.34 C665.54,696.10 656.80,696.97 652.50,696.34 C630.41,693.11 612.38,678.13 604.78,656.67 C602.94,651.48 602.59,648.27 602.55,636.50 C602.51,624.34 602.82,621.54 604.90,615.17 C610.81,597.12 624.80,583.44 643.00,577.91 C656.67,573.75 674.34,575.05 686.19,581.10 C693.24,584.70 702.71,594.64 706.63,602.57 C708.62,606.60 710.03,610.49 709.75,611.21 C709.45,612.00 705.04,613.23 698.60,614.32 C686.51,616.37 674.73,619.69 664.50,623.94 C656.79,627.15 629.09,639.80 624.78,642.08 L 622.06 643.53 L 626.07 651.65 C631.52,662.70 639.47,670.66 650.34,675.98 C671.03,686.10 689.22,682.17 706.51,663.84 C710.16,659.97 713.30,656.97 713.49,657.16 C713.68,657.34 712.65,659.97 711.21,663.00 C707.69,670.35 692.62,685.41 684.50,689.68 C681.20,691.41 675.80,693.51 672.50,694.34 ZM 369.00 692.06 C376.59,694.38 386.55,690.89 392.51,683.81 C396.47,679.09 400.85,669.78 402.62,662.25 C406.28,646.76 400.58,619.51 389.85,601.22 C385.54,593.86 376.33,584.71 370.02,581.51 C363.66,578.29 353.83,578.03 348.14,580.93 C335.95,587.15 329.38,603.37 330.29,625.00 C331.67,657.65 347.79,685.59 369.00,692.06 ZM 459.04 655.00 L 458.50 694.50 L 448.73 694.79 C441.46,695.00 438.85,694.74 438.51,693.79 C438.27,693.08 437.87,670.67 437.64,644.00 C437.41,617.33 436.90,594.06 436.51,592.31 C435.80,589.17 435.89,589.07 442.14,586.23 C445.64,584.64 450.40,582.14 452.73,580.67 C455.06,579.20 457.41,578.00 457.95,578.00 C458.55,578.00 459.06,583.51 459.22,591.75 L 459.50 605.50 L 462.62 600.00 C470.25,586.55 481.97,578.20 496.30,575.99 C514.67,573.16 528.07,580.84 533.19,597.14 C535.46,604.37 535.50,605.27 535.50,649.50 L 535.50 694.50 L 527.50 694.80 C523.11,694.96 518.49,694.84 517.25,694.53 L 515.00 693.96 L 515.00 651.81 C515.00,626.58 514.57,607.22 513.94,603.58 C512.55,595.62 509.32,589.38 504.61,585.58 C501.20,582.81 500.13,582.50 494.15,582.55 C488.90,582.59 486.37,583.18 482.16,585.36 C472.73,590.24 466.45,598.05 461.18,611.43 C459.85,614.83 459.49,622.04 459.04,655.00 ZM 746.76 607.16 L 746.50 694.50 L 736.34 694.78 L 726.19 695.07 L 725.66 619.28 C725.36,577.60 724.73,540.89 724.25,537.69 L 723.38 531.89 L 734.41 526.19 C740.47,523.06 745.79,520.35 746.22,520.16 C746.66,519.98 746.90,559.13 746.76,607.16 ZM 587.79 694.10 C582.95,696.58 573.89,696.59 568.44,694.11 C566.21,693.10 562.72,690.32 560.68,687.94 C553.82,679.93 553.07,673.44 553.03,621.75 L 553.00 581.00 L 547.50 581.00 C544.47,581.00 542.00,580.64 542.00,580.19 C542.00,579.74 544.19,578.82 546.87,578.13 C555.05,576.03 563.75,571.33 568.49,566.45 C570.97,563.90 573.00,561.41 573.00,560.91 C573.00,560.41 573.45,560.00 574.00,560.00 C574.59,560.00 575.00,563.50 575.00,568.50 L 575.00 577.00 L 589.00 577.00 C602.67,577.00 603.00,577.05 603.00,579.15 C603.00,581.29 602.87,581.30 589.00,580.64 L 575.00 579.97 L 575.01 625.74 C575.01,653.87 575.41,672.92 576.03,675.19 C578.32,683.43 587.11,686.45 594.40,681.50 C596.43,680.12 598.27,679.00 598.50,679.00 C598.73,679.00 598.24,680.90 597.42,683.22 C595.63,688.31 592.76,691.55 587.79,694.10 ZM 833.59 681.49 C843.76,685.37 859.31,680.82 867.88,671.44 C875.04,663.60 876.00,659.15 876.00,633.68 C876.00,622.31 875.77,613.00 875.48,613.00 C875.19,613.00 873.21,614.11 871.07,615.46 C868.93,616.81 862.08,620.21 855.84,623.01 C829.48,634.86 819.52,644.15 818.26,658.04 C817.32,668.39 823.32,677.56 833.59,681.49 ZM 620.44 637.80 C620.85,639.62 621.48,640.97 621.85,640.80 C622.22,640.64 628.37,637.26 635.51,633.30 C649.30,625.66 662.29,620.20 673.38,617.42 C682.75,615.06 683.33,614.30 682.79,604.94 C682.44,598.97 681.76,596.26 679.69,592.73 C676.15,586.69 668.68,580.26 663.61,578.89 C658.23,577.43 649.42,578.28 643.71,580.80 C634.16,585.03 624.93,596.51 621.44,608.50 C619.60,614.80 619.03,631.54 620.44,637.80 ZM 783.43 693.43 C781.88,694.98 776.97,695.24 767.84,694.28 L 764.19 693.89 L 763.67 645.20 C763.39,618.41 762.85,595.09 762.48,593.37 L 761.81 590.25 L 772.64 584.87 C778.59,581.92 783.81,579.35 784.23,579.17 C784.65,578.98 785.00,604.26 785.00,635.35 C785.00,685.39 784.82,692.04 783.43,693.43 ZM 781.08 566.96 C776.19,569.45 774.64,569.47 769.40,567.09 C761.65,563.57 758.55,556.07 761.80,548.71 C766.68,537.68 783.14,536.90 787.56,547.49 C790.88,555.43 788.26,563.30 781.08,566.96 Z" fill="rgb(16,81,84)" data-index="0" style="opacity: 1;"></path>
<path d="M 614.82 428.59 C615.09,429.77 611.38,430.00 591.82,430.00 L 568.48 430.00 L 544.50 406.00 C531.31,392.80 519.87,382.00 519.07,382.00 C518.28,382.00 516.63,382.94 515.41,384.09 C512.45,386.87 511.79,386.44 498.59,373.14 L 487.68 362.14 L 490.59 358.82 C492.19,356.99 499.48,349.65 506.79,342.51 L 520.07 329.51 L 532.79 342.51 C567.21,377.68 614.54,427.34 614.82,428.59 ZM 450.50 458.28 L 429.50 479.06 L 410.00 478.78 C388.15,478.47 384.75,478.22 385.19,477.01 C385.84,475.24 449.28,411.00 450.38,411.00 C451.01,411.00 456.67,416.15 462.94,422.44 C473.36,432.89 474.22,434.03 472.92,435.69 C472.14,436.69 462.05,446.85 450.50,458.28 Z" fill="rgb(93,170,143)" data-index="1" style="opacity: 1;"></path>
<path d="M 0.00 512.00 L 0.00 0.00 L 512.00 0.00 L 1024.00 0.00 L 1024.00 512.00 L 1024.00 1024.00 L 512.00 1024.00 L 0.00 1024.00 L 0.00 512.00 ZM 316.70 688.96 C302.98,676.12 298.24,664.93 290.02,626.00 C288.34,618.03 284.92,601.83 282.43,590.00 C279.93,578.17 275.89,558.60 273.44,546.50 C267.78,518.45 268.05,519.55 267.01,520.61 C266.53,521.10 264.50,525.55 262.50,530.50 C258.69,539.94 223.82,631.14 217.49,648.25 C216.52,650.86 215.37,653.00 214.94,653.00 C214.50,653.00 213.18,650.41 212.01,647.25 C207.66,635.54 197.56,609.08 192.25,595.50 C181.65,568.36 167.10,541.26 158.56,532.72 C151.07,525.23 136.21,518.96 126.09,519.02 L 122.50 519.04 L 125.00 521.00 C126.38,522.08 128.02,522.97 128.66,522.98 C130.90,523.02 142.77,537.03 146.36,543.87 C150.57,551.87 150.78,554.58 148.05,565.61 C145.91,574.27 141.80,593.00 133.50,632.00 C130.52,646.03 126.48,664.86 124.54,673.86 C120.31,693.40 120.25,694.25 123.18,693.82 C124.92,693.56 125.61,692.40 126.63,688.00 C128.23,681.08 138.43,631.85 146.41,592.50 C149.76,576.00 152.90,562.59 153.39,562.69 C155.91,563.23 183.57,633.26 198.03,675.72 C200.69,683.55 203.28,690.68 203.78,691.57 C204.84,693.47 206.56,689.63 215.90,664.50 C229.46,628.01 253.04,565.76 253.85,564.30 C254.41,563.30 254.96,563.12 255.38,563.81 C255.74,564.39 259.63,582.79 264.02,604.69 C272.68,647.92 277.08,663.74 282.94,672.74 C290.55,684.44 301.62,692.04 316.87,696.04 C320.52,696.99 323.86,697.56 324.30,697.30 C324.74,697.03 321.32,693.28 316.70,688.96 ZM 382.50 693.91 C400.62,688.37 415.41,672.52 420.68,653.00 C423.26,643.46 423.02,627.76 420.14,617.55 C412.76,591.41 395.82,577.17 369.89,575.33 C358.48,574.52 350.54,576.12 340.72,581.22 C322.27,590.79 310.00,613.17 310.00,637.27 C310.00,653.51 315.65,667.68 326.47,678.57 C335.35,687.52 349.37,694.42 362.50,696.31 C367.15,696.98 375.90,695.93 382.50,693.91 ZM 672.50 694.34 C675.80,693.51 681.20,691.41 684.50,689.68 C692.62,685.41 707.69,670.35 711.21,663.00 C712.65,659.97 713.68,657.34 713.49,657.16 C713.30,656.97 710.16,659.97 706.51,663.84 C689.22,682.17 671.03,686.10 650.34,675.98 C639.47,670.66 631.52,662.70 626.07,651.65 L 622.06 643.53 L 624.78 642.08 C629.09,639.80 656.79,627.15 664.50,623.94 C674.73,619.69 686.51,616.37 698.60,614.32 C705.04,613.23 709.45,612.00 709.75,611.21 C710.03,610.49 708.62,606.60 706.63,602.57 C702.71,594.64 693.24,584.70 686.19,581.10 C674.34,575.05 656.67,573.75 643.00,577.91 C624.80,583.44 610.81,597.12 604.90,615.17 C602.82,621.54 602.51,624.34 602.55,636.50 C602.59,648.27 602.94,651.48 604.78,656.67 C612.38,678.13 630.41,693.11 652.50,696.34 C656.80,696.97 665.54,696.10 672.50,694.34 ZM 841.99 694.32 C845.01,693.49 849.38,691.69 851.72,690.32 C856.62,687.45 868.34,676.11 872.00,670.71 C873.38,668.68 874.78,667.01 875.12,667.01 C875.46,667.00 875.95,670.33 876.21,674.39 C876.85,684.42 879.96,690.65 885.92,693.92 C891.16,696.79 897.69,697.09 901.44,694.63 L 904.04 692.93 L 901.60 688.71 C897.66,681.92 897.00,674.94 897.00,640.00 C897.00,606.09 896.35,598.63 892.80,591.53 C888.30,582.53 881.62,577.86 870.47,575.92 C845.79,571.62 811.17,586.79 802.88,605.53 C800.63,610.63 799.21,620.00 800.69,620.00 C801.23,620.00 803.13,617.73 804.93,614.96 C808.65,609.22 821.85,596.02 830.00,589.91 C840.14,582.29 846.45,579.70 856.08,579.21 C867.14,578.65 870.19,580.06 873.57,587.32 C876.89,594.45 877.10,607.90 873.94,610.84 C871.86,612.78 864.42,616.26 840.50,626.47 C816.11,636.89 804.45,645.90 799.97,657.75 C795.15,670.54 801.41,686.13 813.79,692.15 C823.53,696.89 830.69,697.44 841.99,694.32 ZM 587.79 694.10 C592.76,691.55 595.63,688.31 597.42,683.22 C598.24,680.90 598.73,679.00 598.50,679.00 C598.27,679.00 596.43,680.12 594.40,681.50 C587.11,686.45 578.32,683.43 576.03,675.19 C575.41,672.92 575.01,653.87 575.01,625.74 L 575.00 579.97 L 589.00 580.64 C602.87,581.30 603.00,581.29 603.00,579.15 C603.00,577.05 602.67,577.00 589.00,577.00 L 575.00 577.00 L 575.00 568.50 C575.00,563.50 574.59,560.00 574.00,560.00 C573.45,560.00 573.00,560.41 573.00,560.91 C573.00,561.41 570.97,563.90 568.49,566.45 C563.75,571.33 555.05,576.03 546.87,578.13 C544.19,578.82 542.00,579.74 542.00,580.19 C542.00,580.64 544.47,581.00 547.50,581.00 L 553.00 581.00 L 553.03 621.75 C553.07,673.44 553.82,679.93 560.68,687.94 C562.72,690.32 566.21,693.10 568.44,694.11 C573.89,696.59 582.95,696.58 587.79,694.10 ZM 459.04 655.00 C459.49,622.04 459.85,614.83 461.18,611.43 C466.45,598.05 472.73,590.24 482.16,585.36 C486.37,583.18 488.90,582.59 494.15,582.55 C500.13,582.50 501.20,582.81 504.61,585.58 C509.32,589.38 512.55,595.62 513.94,603.58 C514.57,607.22 515.00,626.58 515.00,651.81 L 515.00 693.96 L 517.25 694.53 C518.49,694.84 523.11,694.96 527.50,694.80 L 535.50 694.50 L 535.50 649.50 C535.50,605.27 535.46,604.37 533.19,597.14 C528.07,580.84 514.67,573.16 496.30,575.99 C481.97,578.20 470.25,586.55 462.62,600.00 L 459.50 605.50 L 459.22 591.75 C459.06,583.51 458.55,578.00 457.95,578.00 C457.41,578.00 455.06,579.20 452.73,580.67 C450.40,582.14 445.64,584.64 442.14,586.23 C435.89,589.07 435.80,589.17 436.51,592.31 C436.90,594.06 437.41,617.33 437.64,644.00 C437.87,670.67 438.27,693.08 438.51,693.79 C438.85,694.74 441.46,695.00 448.73,694.79 L 458.50 694.50 L 459.04 655.00 ZM 746.76 607.16 C746.90,559.13 746.66,519.98 746.22,520.16 C745.79,520.35 740.47,523.06 734.41,526.19 L 723.38 531.89 L 724.25 537.69 C724.73,540.89 725.36,577.60 725.66,619.28 L 726.19 695.07 L 736.34 694.78 L 746.50 694.50 L 746.76 607.16 ZM 783.43 693.43 C784.82,692.04 785.00,685.39 785.00,635.35 C785.00,604.26 784.65,578.98 784.23,579.17 C783.81,579.35 778.59,581.92 772.64,584.87 L 761.81 590.25 L 762.48 593.37 C762.85,595.09 763.39,618.41 763.67,645.20 L 764.19 693.89 L 767.84 694.28 C776.97,695.24 781.88,694.98 783.43,693.43 ZM 781.08 566.96 C788.26,563.30 790.88,555.43 787.56,547.49 C783.14,536.90 766.68,537.68 761.80,548.71 C758.55,556.07 761.65,563.57 769.40,567.09 C774.64,569.47 776.19,569.45 781.08,566.96 ZM 408.16 436.86 C449.69,394.77 449.82,394.65 452.16,396.30 C453.45,397.20 472.73,415.94 495.00,437.94 L 535.50 477.94 L 619.69 477.97 C667.26,477.99 704.12,477.62 704.43,477.12 C704.73,476.63 696.48,468.08 686.10,458.12 L 667.22 440.00 L 608.07 440.00 L 548.91 440.00 L 521.74 413.25 C506.79,398.54 484.42,376.50 472.03,364.28 L 449.50 342.05 L 416.91 374.78 C365.26,426.64 316.00,477.06 316.00,478.07 C316.00,478.62 326.44,479.02 341.25,479.04 L 366.50 479.08 L 408.16 436.86 ZM 450.50 458.28 C462.05,446.85 472.14,436.69 472.92,435.69 C474.22,434.03 473.36,432.89 462.94,422.44 C456.67,416.15 451.01,411.00 450.38,411.00 C449.28,411.00 385.84,475.24 385.19,477.01 C384.75,478.22 388.15,478.47 410.00,478.78 L 429.50 479.06 L 450.50 458.28 ZM 614.82 428.59 C614.54,427.34 567.21,377.68 532.79,342.51 L 520.07 329.51 L 506.79 342.51 C499.48,349.65 492.19,356.99 490.59,358.82 L 487.68 362.14 L 498.59 373.14 C511.79,386.44 512.45,386.87 515.41,384.09 C516.63,382.94 518.28,382.00 519.07,382.00 C519.87,382.00 531.31,392.80 544.50,406.00 L 568.48 430.00 L 591.82 430.00 C611.38,430.00 615.09,429.77 614.82,428.59 ZM 369.00 692.06 C347.79,685.59 331.67,657.65 330.29,625.00 C329.38,603.37 335.95,587.15 348.14,580.93 C353.83,578.03 363.66,578.29 370.02,581.51 C376.33,584.71 385.54,593.86 389.85,601.22 C400.58,619.51 406.28,646.76 402.62,662.25 C400.85,669.78 396.47,679.09 392.51,683.81 C386.55,690.89 376.59,694.38 369.00,692.06 ZM 620.44 637.80 C619.03,631.54 619.60,614.80 621.44,608.50 C624.93,596.51 634.16,585.03 643.71,580.80 C649.42,578.28 658.23,577.43 663.61,578.89 C668.68,580.26 676.15,586.69 679.69,592.73 C681.76,596.26 682.44,598.97 682.79,604.94 C683.33,614.30 682.75,615.06 673.38,617.42 C662.29,620.20 649.30,625.66 635.51,633.30 C628.37,637.26 622.22,640.64 621.85,640.80 C621.48,640.97 620.85,639.62 620.44,637.80 ZM 833.59 681.49 C823.32,677.56 817.32,668.39 818.26,658.04 C819.52,644.15 829.48,634.86 855.84,623.01 C862.08,620.21 868.93,616.81 871.07,615.46 C873.21,614.11 875.19,613.00 875.48,613.00 C875.77,613.00 876.00,622.31 876.00,633.68 C876.00,659.15 875.04,663.60 867.88,671.44 C859.31,680.82 843.76,685.37 833.59,681.49 Z" fill="rgb(254,254,254)" data-index="2" style="opacity: 1;"></path>
</g>
</svg>