<?xml version="1.0" standalone="no"?>
<!DOCTYPE svg PUBLIC "-//W3C//DTD SVG 20010904//EN"
 "http://www.w3.org/TR/2001/REC-SVG-20010904/DTD/svg10.dtd">
<svg version="1.0" xmlns="http://www.w3.org/2000/svg"
 width="1024.000000pt" height="1024.000000pt" viewBox="0 0 1024.000000 1024.000000"
 preserveAspectRatio="xMidYMid meet">

<g transform="translate(0.000000,1024.000000) scale(0.100000,-0.100000)"
fill="#004B49" stroke="none">
<path d="M4139 6463 c-600 -607 -884 -896 -934 -950 l-48 -53 256 0 256 0 412
415 c227 228 416 415 422 415 5 0 134 -123 286 -273 152 -150 341 -336 421
-415 l146 -142 849 0 850 1 -194 189 -195 190 -588 0 -589 0 -72 66 c-40 37
-264 258 -498 491 l-426 424 -354 -358z"/>
<path d="M1225 5049 c4 -5 23 -18 44 -29 86 -43 231 -244 231 -318 0 -17 -12
-79 -26 -139 -24 -103 -263 -1212 -267 -1243 -3 -22 30 -24 42 -2 6 11 31 120
56 243 216 1054 222 1084 233 1059 5 -14 24 -56 42 -95 80 -175 297 -744 411
-1075 23 -69 44 -127 46 -129 8 -11 10 -6 270 679 47 124 105 279 129 345 82
222 107 278 115 263 4 -8 40 -172 78 -366 101 -499 124 -589 182 -704 30 -60
133 -162 196 -196 54 -28 188 -72 223 -72 8 0 -22 34 -66 75 -64 58 -90 91
-122 152 -49 96 -92 228 -127 393 -14 69 -55 260 -90 425 -35 165 -83 395
-107 512 -23 116 -46 209 -50 207 -7 -5 -86 -202 -194 -486 -35 -93 -94 -246
-130 -340 -36 -95 -87 -231 -114 -303 -72 -194 -81 -211 -90 -194 -5 8 -49
122 -99 254 -132 345 -176 452 -251 610 -117 244 -219 374 -336 426 -70 32
-241 68 -229 48z"/>
<path d="M7345 4980 c-81 -44 -109 -64 -108 -77 18 -149 24 -487 17 -1005 l-7
-598 107 0 106 0 0 870 c0 479 -1 870 -2 869 -2 0 -52 -27 -113 -59z"/>
<path d="M7669 4816 c-118 -80 -63 -256 79 -256 107 0 175 127 116 218 -41 63
-133 80 -195 38z"/>
<path d="M5714 4613 c-58 -78 -112 -112 -234 -149 l-75 -23 62 0 62 -1 3 -467
c5 -527 5 -533 78 -616 84 -94 238 -102 321 -14 20 21 29 38 43 85 l7 22 -37
-25 c-43 -29 -107 -33 -143 -9 -55 39 -56 50 -59 557 l-3 467 145 0 c123 0
146 2 146 15 0 13 -23 15 -145 15 l-146 0 6 90 c4 50 4 90 2 90 -3 0 -17 -17
-33 -37z"/>
<path d="M3533 4479 c-69 -13 -168 -66 -227 -120 -74 -67 -127 -149 -166 -256
-28 -75 -34 -105 -37 -203 -8 -193 40 -325 161 -445 143 -142 348 -204 521
-160 113 29 182 69 264 153 120 121 171 248 171 424 0 253 -118 468 -310 561
-107 52 -256 70 -377 46z m153 -47 c153 -78 265 -251 326 -500 25 -103 29
-252 9 -332 -17 -69 -62 -159 -100 -203 -16 -18 -55 -46 -86 -61 -49 -25 -63
-28 -111 -22 -144 17 -277 145 -353 341 -109 279 -102 539 18 702 71 97 193
128 297 75z"/>
<path d="M4940 4480 c-25 -5 -77 -26 -117 -45 -79 -39 -154 -113 -201 -198
-25 -46 -26 -47 -35 -25 -5 13 -7 76 -4 141 4 64 4 117 2 117 -3 0 -30 -16
-61 -36 -31 -20 -81 -47 -111 -60 l-55 -25 7 -37 c4 -20 9 -256 12 -524 l4
-488 100 0 99 0 0 343 c1 241 5 364 14 417 26 147 115 274 232 331 54 27 72
31 122 27 70 -5 111 -31 147 -93 49 -83 55 -143 55 -602 l0 -423 106 0 106 0
-5 438 c-4 452 -7 484 -50 584 -20 48 -89 116 -141 139 -51 22 -164 32 -226
19z"/>
<path d="M6475 4475 c-223 -49 -391 -218 -441 -441 -22 -101 -15 -271 15 -366
58 -182 217 -329 403 -373 129 -30 289 -7 401 58 114 67 230 191 271 291 16
38 14 37 -45 -28 -116 -126 -236 -187 -369 -188 -190 -1 -368 115 -455 296
-40 84 -42 92 -17 99 9 3 107 47 217 97 257 118 374 157 573 190 84 14 83 11
28 115 -102 196 -348 302 -581 250z m192 -37 c44 -20 113 -91 141 -143 18 -34
28 -173 14 -193 -5 -8 -54 -26 -108 -41 -128 -36 -247 -88 -386 -168 -74 -42
-115 -60 -121 -54 -6 6 -12 57 -15 114 -6 131 14 230 64 313 99 168 268 239
411 172z"/>
<path d="M8465 4476 c-188 -44 -373 -163 -431 -278 -14 -27 -27 -75 -30 -110
l-7 -63 50 70 c56 77 192 212 266 263 183 127 359 134 419 18 16 -30 23 -65
26 -133 l4 -91 -41 -30 c-22 -16 -98 -53 -168 -82 -331 -134 -474 -225 -538
-341 -26 -47 -30 -64 -30 -129 0 -62 5 -84 27 -126 66 -125 222 -189 377 -153
109 25 233 117 321 238 l45 62 6 -89 c4 -67 11 -99 30 -132 43 -78 133 -110
215 -75 l36 15 -21 26 c-46 58 -51 106 -51 450 0 177 -5 358 -11 401 -19 142
-84 238 -185 276 -65 25 -229 31 -309 13z m293 -597 c-3 -207 -5 -228 -26
-274 -31 -68 -93 -128 -166 -161 -86 -39 -199 -41 -271 -4 -73 38 -115 110
-115 200 1 152 95 247 370 370 63 29 133 65 155 80 22 15 44 24 48 20 5 -5 7
-109 5 -231z"/>
<path d="M7727 4393 l-109 -56 7 -36 c3 -20 9 -253 12 -518 l5 -483 99 0 99 0
0 575 c0 316 -1 575 -2 574 -2 0 -52 -26 -111 -56z"/>
</g>
</svg>
