<svg xmlns="http://www.w3.org/2000/svg" viewBox="0 0 454 204" role="img" aria-label="Montelia">
  <rect width="454" height="204" fill="#ffffff"/>
  <path d="M 78.54 174.75 L 74.77 179.00 L 46.38 179.00 C28.23,179.00 18.00,178.64 18.00,178.01 C18.00,177.46 34.75,160.02 55.23,139.26 C75.71,118.49 108.35,85.38 127.78,65.69 C147.85,45.33 163.72,30.01 164.54,30.19 C165.34,30.36 180.50,44.92 198.24,62.55 C215.98,80.18 240.26,104.14 252.20,115.80 L 273.90 137.00 L 404.15 137.00 L 424.94 157.25 C436.38,168.39 445.54,177.84 445.31,178.25 C445.07,178.66 403.17,178.99 352.19,178.97 L 259.50 178.94 L 245.50 165.28 C237.80,157.76 216.96,137.30 199.18,119.80 C181.40,102.31 166.23,88.00 165.46,88.00 C164.22,88.00 88.09,163.98 78.54,174.75 Z" fill="#105356"/>
  <path d="M 346.50 125.01 C346.12,125.62 336.28,126.00 320.66,126.00 L 295.44 126.00 L 268.98 99.50 C254.43,84.93 241.80,73.00 240.92,73.00 C240.03,73.00 238.50,73.90 237.50,75.00 C236.50,76.10 234.94,77.00 234.02,77.00 C231.88,77.00 207.00,53.22 207.00,51.17 C207.00,49.38 239.85,16.00 241.62,16.00 C242.27,16.00 252.64,26.22 264.65,38.71 C276.67,51.20 300.14,75.50 316.80,92.72 C333.47,109.93 346.83,124.46 346.50,125.01 ZM 167.24 155.26 L 143.48 179.00 L 118.80 179.00 C105.23,179.00 93.88,178.62 93.59,178.15 C92.96,177.12 163.70,105.00 165.35,105.00 C166.77,105.00 191.00,129.11 191.00,130.52 C191.00,131.07 180.31,142.20 167.24,155.26 Z" fill="#58aa8b"/>
</svg>
